<svg xmlns="http://www.w3.org/2000/svg" xmlns:xlink="http://www.w3.org/1999/xlink" width="108" height="108"
     viewBox="0 0 108 108">
    <defs>
        <linearGradient id="linear-gradient" x1="0.089" y1="0.229" x2="0.875" y2="0.803"
                        gradientUnits="objectBoundingBox">
            <stop offset="0" stop-color="#ff83e7"/>
            <stop offset="1" stop-color="#8d00af"/>
        </linearGradient>
        <clipPath id="clip-pluginIcon">
            <rect width="108" height="108"/>
        </clipPath>
    </defs>
    <g id="pluginIcon" clip-path="url(#clip-pluginIcon)">
        <path id="Rectangle_1" d="M0,0H32A20,20,0,0,1,52,20V84a20,20,0,0,1-20,20H0a0,0,0,0,1,0,0V0A0,0,0,0,1,0,0Z"
              transform="translate(54 2)" fill="#fff"/>
        <path id="Rectangle_3" d="M20,0H52a0,0,0,0,1,0,0V104a0,0,0,0,1,0,0H20A20,20,0,0,1,0,84V20A20,20,0,0,1,20,0Z"
              transform="translate(2 2)"/>
        <rect id="Rectangle_2" width="40" height="40" rx="20" transform="translate(34 34)"
              fill="url(#linear-gradient)"/>
        <path id="Rectangle_4" d="M20,0H52a0,0,0,0,1,0,0V104a0,0,0,0,1,0,0H20A20,20,0,0,1,0,84V20A20,20,0,0,1,20,0Z"
              transform="translate(2 2)" opacity="0.999" style="mix-blend-mode: hue;isolation: isolate"/>
    </g>
</svg>
